<svg width="65" height="38" viewBox="0 0 65 38" fill="none" xmlns="http://www.w3.org/2000/svg">
<path d="M6.83594 11.7598H3.18359L3.16406 9.74805H6.23047C6.77083 9.74805 7.21354 9.67969 7.55859 9.54297C7.90365 9.39974 8.16081 9.19466 8.33008 8.92773C8.50586 8.6543 8.59375 8.32227 8.59375 7.93164C8.59375 7.48893 8.50911 7.13086 8.33984 6.85742C8.17708 6.58398 7.91992 6.38542 7.56836 6.26172C7.22331 6.13802 6.77734 6.07617 6.23047 6.07617H4.19922V18H1.26953V3.78125H6.23047C7.05729 3.78125 7.79622 3.85938 8.44727 4.01562C9.10482 4.17188 9.66146 4.40951 10.1172 4.72852C10.5729 5.04753 10.9212 5.45117 11.1621 5.93945C11.403 6.42122 11.5234 6.99414 11.5234 7.6582C11.5234 8.24414 11.39 8.78451 11.123 9.2793C10.8626 9.77409 10.4492 10.1777 9.88281 10.4902C9.32292 10.8027 8.59049 10.9753 7.68555 11.0078L6.83594 11.7598ZM6.70898 18H2.38281L3.52539 15.7148H6.70898C7.22331 15.7148 7.64323 15.6335 7.96875 15.4707C8.29427 15.3014 8.53516 15.0736 8.69141 14.7871C8.84766 14.5007 8.92578 14.1719 8.92578 13.8008C8.92578 13.3841 8.85417 13.0228 8.71094 12.7168C8.57422 12.4108 8.35286 12.1764 8.04688 12.0137C7.74089 11.8444 7.33724 11.7598 6.83594 11.7598H4.01367L4.0332 9.74805H7.54883L8.22266 10.5391C9.08854 10.526 9.78516 10.679 10.3125 10.998C10.8464 11.3105 11.2337 11.7174 11.4746 12.2188C11.722 12.7201 11.8457 13.2572 11.8457 13.8301C11.8457 14.7415 11.6471 15.5098 11.25 16.1348C10.8529 16.7533 10.2702 17.2188 9.50195 17.5312C8.74023 17.8438 7.80924 18 6.70898 18ZM18.7305 18.1953C17.9102 18.1953 17.1745 18.0651 16.5234 17.8047C15.8724 17.5378 15.319 17.1699 14.8633 16.7012C14.4141 16.2324 14.069 15.6888 13.8281 15.0703C13.5872 14.4453 13.4668 13.7812 13.4668 13.0781V12.6875C13.4668 11.8867 13.5807 11.1543 13.8086 10.4902C14.0365 9.82617 14.362 9.25 14.7852 8.76172C15.2148 8.27344 15.7357 7.89909 16.3477 7.63867C16.9596 7.37174 17.6497 7.23828 18.418 7.23828C19.1667 7.23828 19.8307 7.36198 20.4102 7.60938C20.9896 7.85677 21.4746 8.20833 21.8652 8.66406C22.2624 9.11979 22.5618 9.66667 22.7637 10.3047C22.9655 10.9362 23.0664 11.6393 23.0664 12.4141V13.5859H14.668V11.7109H20.3027V11.4961C20.3027 11.1055 20.2311 10.7572 20.0879 10.4512C19.9512 10.1387 19.7428 9.89128 19.4629 9.70898C19.1829 9.52669 18.8249 9.43555 18.3887 9.43555C18.0176 9.43555 17.6986 9.51693 17.4316 9.67969C17.1647 9.84245 16.9466 10.0703 16.7773 10.3633C16.6146 10.6562 16.4909 11.0013 16.4062 11.3984C16.3281 11.7891 16.2891 12.2188 16.2891 12.6875V13.0781C16.2891 13.5013 16.3477 13.8919 16.4648 14.25C16.5885 14.6081 16.7611 14.9173 16.9824 15.1777C17.2103 15.4382 17.4837 15.64 17.8027 15.7832C18.1283 15.9264 18.4961 15.998 18.9062 15.998C19.4141 15.998 19.8861 15.9004 20.3223 15.7051C20.765 15.5033 21.1458 15.2005 21.4648 14.7969L22.832 16.2812C22.6107 16.6003 22.3079 16.9062 21.9238 17.1992C21.5462 17.4922 21.0905 17.7331 20.5566 17.9219C20.0228 18.1042 19.4141 18.1953 18.7305 18.1953ZM29.5312 18.1953C28.7109 18.1953 27.9753 18.0651 27.3242 17.8047C26.6732 17.5378 26.1198 17.1699 25.6641 16.7012C25.2148 16.2324 24.8698 15.6888 24.6289 15.0703C24.388 14.4453 24.2676 13.7812 24.2676 13.0781V12.6875C24.2676 11.8867 24.3815 11.1543 24.6094 10.4902C24.8372 9.82617 25.1628 9.25 25.5859 8.76172C26.0156 8.27344 26.5365 7.89909 27.1484 7.63867C27.7604 7.37174 28.4505 7.23828 29.2188 7.23828C29.9674 7.23828 30.6315 7.36198 31.2109 7.60938C31.7904 7.85677 32.2754 8.20833 32.666 8.66406C33.0632 9.11979 33.3626 9.66667 33.5645 10.3047C33.7663 10.9362 33.8672 11.6393 33.8672 12.4141V13.5859H25.4688V11.7109H31.1035V11.4961C31.1035 11.1055 31.0319 10.7572 30.8887 10.4512C30.752 10.1387 30.5436 9.89128 30.2637 9.70898C29.9837 9.52669 29.6257 9.43555 29.1895 9.43555C28.8184 9.43555 28.4993 9.51693 28.2324 9.67969C27.9655 9.84245 27.7474 10.0703 27.5781 10.3633C27.4154 10.6562 27.2917 11.0013 27.207 11.3984C27.1289 11.7891 27.0898 12.2188 27.0898 12.6875V13.0781C27.0898 13.5013 27.1484 13.8919 27.2656 14.25C27.3893 14.6081 27.5618 14.9173 27.7832 15.1777C28.0111 15.4382 28.2845 15.64 28.6035 15.7832C28.929 15.9264 29.2969 15.998 29.707 15.998C30.2148 15.998 30.6868 15.9004 31.123 15.7051C31.5658 15.5033 31.9466 15.2005 32.2656 14.7969L33.6328 16.2812C33.4115 16.6003 33.1087 16.9062 32.7246 17.1992C32.347 17.4922 31.8913 17.7331 31.3574 17.9219C30.8236 18.1042 30.2148 18.1953 29.5312 18.1953ZM40.6445 7.43359V9.42578H34.4922V7.43359H40.6445ZM36.0156 4.82617H38.8281V14.8164C38.8281 15.1224 38.8672 15.3568 38.9453 15.5195C39.0299 15.6823 39.1536 15.7962 39.3164 15.8613C39.4792 15.9199 39.6842 15.9492 39.9316 15.9492C40.1074 15.9492 40.2637 15.9427 40.4004 15.9297C40.5436 15.9102 40.6641 15.8906 40.7617 15.8711L40.7715 17.9414C40.5306 18.0195 40.2702 18.0814 39.9902 18.127C39.7103 18.1725 39.401 18.1953 39.0625 18.1953C38.444 18.1953 37.9036 18.0944 37.4414 17.8926C36.9857 17.6842 36.6341 17.3522 36.3867 16.8965C36.1393 16.4408 36.0156 15.8418 36.0156 15.0996V4.82617ZM47.959 15.0801C47.959 14.8783 47.9004 14.696 47.7832 14.5332C47.666 14.3704 47.4479 14.2207 47.1289 14.084C46.8164 13.9408 46.3639 13.8105 45.7715 13.6934C45.2376 13.5762 44.7396 13.4297 44.2773 13.2539C43.8216 13.0716 43.4245 12.8535 43.0859 12.5996C42.7539 12.3457 42.4935 12.0462 42.3047 11.7012C42.1159 11.3496 42.0215 10.9492 42.0215 10.5C42.0215 10.0573 42.1159 9.64062 42.3047 9.25C42.5 8.85938 42.7767 8.51432 43.1348 8.21484C43.4993 7.90885 43.9421 7.67122 44.4629 7.50195C44.9902 7.32617 45.5827 7.23828 46.2402 7.23828C47.1582 7.23828 47.946 7.38477 48.6035 7.67773C49.2676 7.9707 49.7754 8.37435 50.127 8.88867C50.485 9.39648 50.6641 9.97591 50.6641 10.627H47.8516C47.8516 10.3535 47.793 10.1094 47.6758 9.89453C47.5651 9.67318 47.3893 9.50065 47.1484 9.37695C46.9141 9.24674 46.6081 9.18164 46.2305 9.18164C45.918 9.18164 45.6478 9.23698 45.4199 9.34766C45.1921 9.45182 45.0163 9.59505 44.8926 9.77734C44.7754 9.95312 44.7168 10.1484 44.7168 10.3633C44.7168 10.526 44.7493 10.6725 44.8145 10.8027C44.8861 10.9264 45 11.0404 45.1562 11.1445C45.3125 11.2487 45.5143 11.3464 45.7617 11.4375C46.0156 11.5221 46.3281 11.6003 46.6992 11.6719C47.4609 11.8281 48.1413 12.0332 48.7402 12.2871C49.3392 12.5345 49.8145 12.873 50.166 13.3027C50.5176 13.7259 50.6934 14.2826 50.6934 14.9727C50.6934 15.4414 50.5892 15.8711 50.3809 16.2617C50.1725 16.6523 49.873 16.9941 49.4824 17.2871C49.0918 17.5736 48.623 17.7982 48.0762 17.9609C47.5358 18.1172 46.9271 18.1953 46.25 18.1953C45.2669 18.1953 44.4336 18.0195 43.75 17.668C43.0729 17.3164 42.5586 16.8704 42.207 16.3301C41.862 15.7832 41.6895 15.2233 41.6895 14.6504H44.3555C44.3685 15.0345 44.4661 15.3438 44.6484 15.5781C44.8372 15.8125 45.0749 15.9818 45.3613 16.0859C45.6543 16.1901 45.9701 16.2422 46.3086 16.2422C46.6732 16.2422 46.9759 16.1934 47.2168 16.0957C47.4577 15.9915 47.64 15.8548 47.7637 15.6855C47.8939 15.5098 47.959 15.3079 47.959 15.0801Z" fill="white"/>
<path d="M37.4531 29.0078H34.5312L34.5156 27.3984H36.9688C37.401 27.3984 37.7552 27.3438 38.0312 27.2344C38.3073 27.1198 38.513 26.9557 38.6484 26.7422C38.7891 26.5234 38.8594 26.2578 38.8594 25.9453C38.8594 25.5911 38.7917 25.3047 38.6562 25.0859C38.526 24.8672 38.3203 24.7083 38.0391 24.6094C37.763 24.5104 37.4062 24.4609 36.9688 24.4609H35.3438V34H33V22.625H36.9688C37.6302 22.625 38.2214 22.6875 38.7422 22.8125C39.2682 22.9375 39.7135 23.1276 40.0781 23.3828C40.4427 23.638 40.7214 23.9609 40.9141 24.3516C41.1068 24.737 41.2031 25.1953 41.2031 25.7266C41.2031 26.1953 41.0964 26.6276 40.8828 27.0234C40.6745 27.4193 40.3438 27.7422 39.8906 27.9922C39.4427 28.2422 38.8568 28.3802 38.1328 28.4062L37.4531 29.0078ZM37.3516 34H33.8906L34.8047 32.1719H37.3516C37.763 32.1719 38.099 32.1068 38.3594 31.9766C38.6198 31.8411 38.8125 31.6589 38.9375 31.4297C39.0625 31.2005 39.125 30.9375 39.125 30.6406C39.125 30.3073 39.0677 30.0182 38.9531 29.7734C38.8438 29.5286 38.6667 29.3411 38.4219 29.2109C38.1771 29.0755 37.8542 29.0078 37.4531 29.0078H35.1953L35.2109 27.3984H38.0234L38.5625 28.0312C39.2552 28.0208 39.8125 28.1432 40.2344 28.3984C40.6615 28.6484 40.9714 28.974 41.1641 29.375C41.362 29.776 41.4609 30.2057 41.4609 30.6641C41.4609 31.3932 41.3021 32.0078 40.9844 32.5078C40.6667 33.0026 40.2005 33.375 39.5859 33.625C38.9766 33.875 38.2318 34 37.3516 34ZM45.4531 22V34H43.1953V22H45.4531ZM46.9531 29.8594V29.6953C46.9531 29.0755 47.0417 28.5052 47.2188 27.9844C47.3958 27.4583 47.6536 27.0026 47.9922 26.6172C48.3307 26.2318 48.7474 25.9323 49.2422 25.7188C49.737 25.5 50.3047 25.3906 50.9453 25.3906C51.5859 25.3906 52.1562 25.5 52.6562 25.7188C53.1562 25.9323 53.5755 26.2318 53.9141 26.6172C54.2578 27.0026 54.5182 27.4583 54.6953 27.9844C54.8724 28.5052 54.9609 29.0755 54.9609 29.6953V29.8594C54.9609 30.474 54.8724 31.0443 54.6953 31.5703C54.5182 32.0911 54.2578 32.5469 53.9141 32.9375C53.5755 33.3229 53.1589 33.6224 52.6641 33.8359C52.1693 34.0495 51.6016 34.1562 50.9609 34.1562C50.3203 34.1562 49.75 34.0495 49.25 33.8359C48.7552 33.6224 48.3359 33.3229 47.9922 32.9375C47.6536 32.5469 47.3958 32.0911 47.2188 31.5703C47.0417 31.0443 46.9531 30.474 46.9531 29.8594ZM49.2031 29.6953V29.8594C49.2031 30.2135 49.2344 30.5443 49.2969 30.8516C49.3594 31.1589 49.4583 31.4297 49.5938 31.6641C49.7344 31.8932 49.9167 32.0729 50.1406 32.2031C50.3646 32.3333 50.638 32.3984 50.9609 32.3984C51.2734 32.3984 51.5417 32.3333 51.7656 32.2031C51.9896 32.0729 52.1693 31.8932 52.3047 31.6641C52.4401 31.4297 52.5391 31.1589 52.6016 30.8516C52.6693 30.5443 52.7031 30.2135 52.7031 29.8594V29.6953C52.7031 29.3516 52.6693 29.0286 52.6016 28.7266C52.5391 28.4193 52.4375 28.1484 52.2969 27.9141C52.1615 27.6745 51.9818 27.487 51.7578 27.3516C51.5339 27.2161 51.263 27.1484 50.9453 27.1484C50.6276 27.1484 50.3568 27.2161 50.1328 27.3516C49.9141 27.487 49.7344 27.6745 49.5938 27.9141C49.4583 28.1484 49.3594 28.4193 49.2969 28.7266C49.2344 29.0286 49.2031 29.3516 49.2031 29.6953ZM61.6953 25.5469H63.7344V33.7188C63.7344 34.4896 63.5625 35.1432 63.2188 35.6797C62.8802 36.2214 62.4062 36.6302 61.7969 36.9062C61.1875 37.1875 60.4792 37.3281 59.6719 37.3281C59.3177 37.3281 58.9427 37.2812 58.5469 37.1875C58.1562 37.0938 57.7812 36.9479 57.4219 36.75C57.0677 36.5521 56.7708 36.3021 56.5312 36L57.5234 34.6719C57.7839 34.974 58.0859 35.2083 58.4297 35.375C58.7734 35.5469 59.1536 35.6328 59.5703 35.6328C59.9766 35.6328 60.3203 35.5573 60.6016 35.4062C60.8828 35.2604 61.099 35.0443 61.25 34.7578C61.401 34.4766 61.4766 34.1354 61.4766 33.7344V27.5L61.6953 25.5469ZM56.0078 29.875V29.7109C56.0078 29.0651 56.0859 28.4792 56.2422 27.9531C56.4036 27.4219 56.6302 26.9661 56.9219 26.5859C57.2188 26.2057 57.5781 25.9115 58 25.7031C58.4219 25.4948 58.8984 25.3906 59.4297 25.3906C59.9922 25.3906 60.4635 25.4948 60.8438 25.7031C61.224 25.9115 61.5365 26.2083 61.7812 26.5938C62.026 26.974 62.2161 27.4245 62.3516 27.9453C62.4922 28.4609 62.6016 29.026 62.6797 29.6406V30C62.6016 30.5885 62.4844 31.1354 62.3281 31.6406C62.1719 32.1458 61.9661 32.5885 61.7109 32.9688C61.4557 33.3438 61.138 33.6354 60.7578 33.8438C60.3828 34.0521 59.9349 34.1562 59.4141 34.1562C58.8932 34.1562 58.4219 34.0495 58 33.8359C57.5833 33.6224 57.2266 33.3229 56.9297 32.9375C56.6328 32.5521 56.4036 32.099 56.2422 31.5781C56.0859 31.0573 56.0078 30.4896 56.0078 29.875ZM58.2578 29.7109V29.875C58.2578 30.224 58.2917 30.5495 58.3594 30.8516C58.4271 31.1536 58.5312 31.4219 58.6719 31.6562C58.8177 31.8854 58.9974 32.0651 59.2109 32.1953C59.4297 32.3203 59.6875 32.3828 59.9844 32.3828C60.3958 32.3828 60.7318 32.2969 60.9922 32.125C61.2526 31.9479 61.4479 31.7057 61.5781 31.3984C61.7083 31.0911 61.7839 30.737 61.8047 30.3359V29.3125C61.7943 28.9844 61.75 28.6901 61.6719 28.4297C61.5938 28.1641 61.4844 27.9375 61.3438 27.75C61.2031 27.5625 61.0208 27.4167 60.7969 27.3125C60.5729 27.2083 60.3073 27.1562 60 27.1562C59.7031 27.1562 59.4453 27.224 59.2266 27.3594C59.013 27.4896 58.8333 27.6693 58.6875 27.8984C58.5469 28.1276 58.4401 28.3984 58.3672 28.7109C58.2943 29.0182 58.2578 29.3516 58.2578 29.7109Z" fill="#3F8532"/>
</svg>
